<svg width="56" height="56" viewBox="0 0 56 56" fill="none" xmlns="http://www.w3.org/2000/svg">
<path d="M36.543 26.852V12.109C36.543 6.695 33.051 2.922 28.012 2.922C22.972 2.922 19.48 6.695 19.48 12.109V26.852C19.48 32.242 22.973 36.039 28.012 36.039C33.051 36.039 36.543 32.242 36.543 26.852ZM33.002 26.852C33.002 30.32 31.011 32.547 28.011 32.547C25.011 32.547 23.019 30.32 23.019 26.852V12.109C23.019 8.641 25.011 6.414 28.011 6.414C31.011 6.414 33.003 8.641 33.003 12.109L33.002 26.852ZM17.536 49.539C17.3032 49.5392 17.0729 49.5856 16.8582 49.6755C16.6435 49.7654 16.4488 49.897 16.2853 50.0626C16.1218 50.2282 15.9928 50.4247 15.9057 50.6405C15.8186 50.8563 15.7752 51.0873 15.778 51.32C15.7756 51.5515 15.8194 51.7812 15.9069 51.9956C15.9944 52.21 16.1238 52.4047 16.2875 52.5685C16.4512 52.7322 16.646 52.8616 16.8604 52.9491C17.0748 53.0366 17.3044 53.0804 17.536 53.078H38.489C38.7205 53.0804 38.9502 53.0366 39.1646 52.9491C39.379 52.8616 39.5737 52.7322 39.7374 52.5685C39.9012 52.4047 40.0306 52.21 40.1181 51.9956C40.2056 51.7812 40.2494 51.5515 40.247 51.32C40.2496 51.0874 40.2061 50.8565 40.119 50.6408C40.0318 50.4251 39.9028 50.2288 39.7393 50.0633C39.5758 49.8977 39.3812 49.7662 39.1665 49.6764C38.9519 49.5866 38.7216 49.5402 38.489 49.54H29.77V44.078C38.723 43.328 44.77 36.906 44.77 27.695V22.938C44.7724 22.7065 44.7286 22.4768 44.6411 22.2624C44.5536 22.048 44.4242 21.8533 44.2604 21.6895C44.0967 21.5258 43.902 21.3964 43.6876 21.3089C43.4732 21.2214 43.2435 21.1776 43.012 21.18C42.7792 21.1771 42.5481 21.2204 42.3322 21.3074C42.1162 21.3944 41.9197 21.5234 41.7539 21.6869C41.5882 21.8505 41.4565 22.0452 41.3666 22.26C41.2767 22.4747 41.2302 22.7052 41.23 22.938V27.555C41.23 35.547 36.027 40.844 28.012 40.844C19.996 40.844 14.77 35.547 14.77 27.554V22.938C14.7724 22.7065 14.7286 22.4768 14.6411 22.2624C14.5536 22.048 14.4242 21.8533 14.2604 21.6895C14.0967 21.5258 13.902 21.3964 13.6876 21.3089C13.4732 21.2214 13.2435 21.1776 13.012 21.18C12.7792 21.1771 12.5481 21.2204 12.3322 21.3074C12.1162 21.3944 11.9197 21.5234 11.7539 21.6869C11.5882 21.8505 11.4565 22.0452 11.3666 22.26C11.2767 22.4747 11.2302 22.7052 11.23 22.938V27.695C11.23 36.906 17.3 43.328 26.23 44.078V49.539H17.536Z" fill="#46145F"/>
</svg>
